<?xml version="1.0" encoding="UTF-8"?>
<svg version="1.1" xmlns="http://www.w3.org/2000/svg" width="600" height="600">
<path d="M0 0 C0.95293945 0.11827148 1.90587891 0.23654297 2.88769531 0.35839844 C63.72940927 8.15454894 120.74015498 35.80933853 165.40625 77.59375 C167.55881034 79.59070357 169.74854805 81.49263853 172 83.375 C181.32939228 91.48245524 189.40792775 101.29689928 197 111 C197.67216553 111.85537354 197.67216553 111.85537354 198.35791016 112.72802734 C247.37063374 175.44109262 269.31395537 255.02120178 260 334 C253.27248065 387.35763788 233.04418138 440.00841867 199 482 C198.26265625 482.92941406 197.5253125 483.85882813 196.765625 484.81640625 C191.91158553 490.86674268 186.77612673 496.59851618 181.5 502.27734375 C179.53733489 504.41480872 177.65565074 506.57367288 175.8125 508.8125 C173.22688701 511.86689268 170.35473835 514.41999525 167.3046875 517.00390625 C164.6274902 519.32263137 162.07485341 521.755694 159.5 524.1875 C109.8033548 570.2939236 38.22967276 596.69878053 -29 598 C-29.72815918 598.02046387 -30.45631836 598.04092773 -31.20654297 598.06201172 C-108.86256887 600.12216939 -184.75392518 571.40358612 -241.40625 518.40625 C-243.55881034 516.40929643 -245.74854805 514.50736147 -248 512.625 C-257.34334302 504.50542125 -265.34982078 494.67842958 -273 485 C-274.14855469 483.57880859 -274.14855469 483.57880859 -275.3203125 482.12890625 C-288.11335388 465.9833476 -298.65196929 448.32648023 -308 430 C-308.4017041 429.21286621 -308.8034082 428.42573242 -309.21728516 427.61474609 C-328.96215602 388.1502428 -338.21317279 342.9173856 -338.25 299 C-338.25067474 298.26588898 -338.25134949 297.53177795 -338.25204468 296.77542114 C-338.20572024 264.63708153 -332.86426491 233.56313537 -323 203 C-322.70786621 202.09217773 -322.41573242 201.18435547 -322.11474609 200.24902344 C-311.96631997 169.32742469 -296.19432334 140.4776775 -276 115 C-275.27167969 114.06027344 -274.54335938 113.12054688 -273.79296875 112.15234375 C-269.7833778 107.03556792 -265.53732844 102.17618186 -261.15625 97.375 C-259.2143852 95.23613442 -257.32022404 93.06580615 -255.4375 90.875 C-249.45632007 84.02558428 -242.90867792 77.89650365 -236 72 C-235.08863281 71.19949219 -234.17726563 70.39898437 -233.23828125 69.57421875 C-220.41446758 58.39591132 -206.63489606 48.48967917 -191.85644531 40.06054688 C-189.95644592 38.9751185 -188.06801161 37.87121913 -186.1796875 36.765625 C-130.47743242 4.44172282 -63.80193145 -8.28386741 0 0 Z " fill="#7D57B8" transform="translate(338,2)"/>
<path d="M0 0 C108.71626106 0 108.71626106 0 124.328125 15.078125 C135.58773877 28.02141933 136.64795497 43.41704169 136.46655273 59.76855469 C136.43747416 62.62754088 136.44601084 65.48467739 136.45898438 68.34375 C136.44398775 81.95137918 135.84669493 94.89710099 127 106 C124.48932856 108.28814565 121.84273729 110.15279621 119 112 C117.66053135 112.99176686 116.32551665 113.98966175 115 115 C115.66386719 115.30292969 116.32773437 115.60585938 117.01171875 115.91796875 C126.14799415 120.25269796 131.88840228 125.70034589 135.87719727 135.05786133 C138.81891603 144.2021258 138.41686717 153.58117107 138.33618164 163.0793457 C138.31252754 166.05903121 138.31564449 169.03782199 138.32226562 172.01757812 C138.31668895 173.94010942 138.30957914 175.862637 138.30078125 177.78515625 C138.30169266 178.66148209 138.30260406 179.53780792 138.30354309 180.44068909 C138.14449493 194.53430496 134.44065221 207.53320926 124.44140625 217.8125 C94.52977633 244.61332041 22.76785305 231 0 231 C0 154.77 0 78.54 0 0 Z " fill="#ffffff" transform="translate(216,190)"/>
<path d="M0 0 C16.83 0 33.66 0 51 0 C54.625 21.3125 54.625 21.3125 55.82836914 28.38891602 C57.53845406 38.44062168 59.25318329 48.49143957 60.99046326 58.53848267 C62.21103592 65.60037836 63.41490387 72.66506288 64.6138916 79.73065186 C65.01495201 82.08788027 65.41895018 84.44459337 65.82324219 86.80126953 C70.09523437 111.76117559 73.66081855 136.76471931 76.77905273 161.89575195 C76.92077408 163.02820847 77.06249542 164.16066498 77.20851135 165.32743835 C77.47573485 167.46830931 77.73910991 169.60966505 77.99815369 171.75154114 C78.17478294 173.1673774 78.17478294 173.1673774 78.35498047 174.61181641 C78.45600067 175.43920319 78.55702087 176.26658997 78.66110229 177.11904907 C78.81655289 179.00672573 78.81655289 179.00672573 80 180 C80.10546143 178.95884033 80.21092285 177.91768066 80.31958008 176.8449707 C84.01973524 140.4392807 84.01973524 140.4392807 85.96020508 128.12231445 C86.63637193 123.79073035 87.17069325 119.46249139 87.6237793 115.10128784 C88.85257741 103.36738007 90.71285098 91.76419275 92.625 80.125 C93.34008689 75.73353258 94.05145189 71.34146811 94.76171875 66.94921875 C94.94414627 65.82264359 95.12657379 64.69606842 95.31452942 63.53535461 C96.6752885 55.09891624 97.98422338 46.65527168 99.26953125 38.20703125 C99.54401093 36.40513336 99.54401093 36.40513336 99.82403564 34.5668335 C100.54008389 29.86010567 101.25492657 25.15321853 101.9619751 20.44512939 C102.4491632 17.20118378 102.94103591 13.95797759 103.43359375 10.71484375 C103.57803421 9.74126419 103.72247467 8.76768463 103.87129211 7.76460266 C104.00585312 6.88314072 104.14041412 6.00167877 104.27905273 5.09350586 C104.39482162 4.3227623 104.51059052 3.55201874 104.62986755 2.75791931 C105 1 105 1 106 0 C107.62674778 -0.09340434 109.25754051 -0.11745171 110.88696289 -0.11352539 C111.92796646 -0.11344986 112.96897003 -0.11337433 114.04151917 -0.11329651 C115.1737944 -0.10813522 116.30606964 -0.10297394 117.47265625 -0.09765625 C119.20182533 -0.09553383 119.20182533 -0.09553383 120.96592712 -0.09336853 C124.66481064 -0.08775005 128.36363464 -0.07519442 132.0625 -0.0625 C134.56315017 -0.05748738 137.06380129 -0.05292406 139.56445312 -0.04882812 C145.70965588 -0.03777462 151.85482369 -0.02101852 158 0 C157.3861746 3.59693614 156.76767458 7.1930544 156.1484375 10.7890625 C155.97755615 11.79074463 155.8066748 12.79242676 155.63061523 13.82446289 C154.44211272 20.7089122 153.09381732 27.54512964 151.625 34.375 C149.66638889 43.59786113 147.90698686 52.84333145 146.25 62.125 C143.82928638 75.67466153 141.22677027 89.1837216 138.5625 102.6875 C135.78400888 116.77602661 133.06891482 130.87172381 130.5 145 C127.54027377 161.27238095 124.39400577 177.50542261 121.1953125 193.73242188 C120.92215462 195.11898232 120.92215462 195.11898232 120.64347839 196.53355408 C120.31195871 198.21498583 119.97979911 199.89629168 119.64668274 201.57740784 C117.71257374 211.37539774 115.86884338 221.18857228 114 231 C90.9 231 67.8 231 44 231 C42.2043515 223.21885651 40.43836284 215.48266579 38.9140625 207.65234375 C38.73203278 206.72528122 38.55000305 205.79821869 38.36245728 204.84306335 C37.7807629 201.8750327 37.20265836 198.90631859 36.625 195.9375 C36.42579956 194.91799255 36.22659912 193.89848511 36.0213623 192.8480835 C33.44867641 179.67668549 30.9717228 166.49630664 28.66577148 153.27539062 C27.46879426 146.46491429 26.13562284 139.69874781 24.6875 132.9375 C22.33216999 121.93310471 20.28423876 110.87958426 18.25 99.8125 C15.40168152 84.32680263 12.42032626 68.87321626 9.3125 53.4375 C8.93007922 51.53548482 8.54767343 49.63346663 8.1652832 47.73144531 C7.61557864 44.99853002 7.06570302 42.26564942 6.51548767 39.53283691 C4.97456282 31.87893548 3.43934352 24.22418337 1.9375 16.5625 C1.73358643 15.54534912 1.52967285 14.52819824 1.31958008 13.48022461 C1.14064209 12.55991455 0.9617041 11.63960449 0.77734375 10.69140625 C0.62515381 9.91998291 0.47296387 9.14855957 0.31616211 8.35375977 C0 6 0 6 0 0 Z " fill="#ffffff" transform="translate(368,190)"/>
<path d="M0 0 C16.5 0 33 0 50 0 C50 62.37 50 124.74 50 189 C70.46 189 90.92 189 112 189 C112 202.86 112 216.72 112 231 C75.04 231 38.08 231 0 231 C0 154.77 0 78.54 0 0 Z " fill="#ffffff" transform="translate(88,190)"/>
<path d="M0 0 C4.455 -0.103125 8.91 -0.20625 13.5 -0.3125 C15.58344727 -0.38078003 15.58344727 -0.38078003 17.70898438 -0.45043945 C24.22585376 -0.52329828 29.10431439 -0.31255565 34.56445312 3.42895508 C39.56134555 8.89749296 38.37214479 16.75454582 38.37060547 23.66455078 C38.37497375 25.86179426 38.41131591 28.0570182 38.44921875 30.25390625 C38.45508911 31.66665987 38.45905704 33.07942293 38.4609375 34.4921875 C38.46915527 35.76433105 38.47737305 37.03647461 38.48583984 38.34716797 C37.87853517 42.91324465 36.58820848 45.20860211 34 49 C27.66363192 53.23857458 20.43632986 52.33713953 13.0625 52.1875 C8.751875 52.125625 4.44125 52.06375 0 52 C0 34.84 0 17.68 0 0 Z " fill="#7D57B8" transform="translate(267,327)"/>
<path d="M0 0 C25 0 25 0 34 4 C38.21256606 9.80067871 37.4880619 16.50384578 37.44604492 23.36767578 C37.43752086 25.4947957 37.46635775 27.6192375 37.49804688 29.74609375 C37.499659 31.11197837 37.49908113 32.4778677 37.49609375 33.84375 C37.49887329 35.68743164 37.49887329 35.68743164 37.50170898 37.56835938 C36.79052182 42.43281035 34.60746846 45.54323171 31 48.8125 C22.26897936 53.99654351 7.72333289 51 0 51 C0 34.17 0 17.34 0 0 Z " fill="#7D57B8" transform="translate(266,232)"/>
</svg>
